{"title":"Lupe Fiasco - The Show Goes On [Music Video] 720p [Sbyky]","uid":9356053,"size":39698082,"categoryP":"video","categoryS":"music_videos","magnet":"?xt=urn:btih:cfb31ef241656ab101cef6a61dc94b1d2d01a7bf&amp;dn=Lupe+Fiasco+-+The+Show+Goes+On+%5BMusic+Video%5D+720p+%5BSbyky%5D&amp;tr=udp%3A%2F%2Ftracker.openbittorrent.com%3A80&amp;tr=udp%3A%2F%2Fopen.demonii.com%3A1337&amp;tr=udp%3A%2F%2Ftracker.coppersurfer.tk%3A6969&amp;tr=udp%3A%2F%2Fexodus.desync.com%3A6969","seeders":0,"leechers":0,"uploader":"Sbyky","files":1,"time":1387216834,"description":"[IMG]http://cdn.piczend.com/images/CJKUywky/1387185350_theshowgoeson.jpg[/IMG]\n\nGeneral\nComplete name                            : Lupe Fiasco - The Show Goes On [Music Video] 720p [Sbyky].mp4\nFormat                                   : MPEG-4\nFormat profile                           : Base Media\nCodec ID                                 : isom\nFile size                                : 37.9 MiB\nDuration                                 : 4mn 16s\nOverall bit rate mode                    : Variable\nOverall bit rate                         : 1 237 Kbps\nEncoded date                             : UTC 2013-11-12 19:39:20\nTagged date                              : UTC 2013-11-12 19:39:20\n\nVideo\nID                                       : 1\nFormat                                   : AVC\nFormat/Info                              : Advanced Video Codec\nFormat profile                           : &lt;a class=&quot;__cf_email__&quot; href=&quot;/cdn-cgi/l/email-protection&quot; data-cfemail=&quot;2d604c44436d611e031c&quot;&gt;[email&amp;#160;protected]&lt;/a&gt;&lt;script data-cfhash='f9e31' type=&quot;text/javascript&quot;&gt;\n/* &lt;![CDATA[ */!function(){try{var t=&quot;currentScript&quot;in document?document.currentScript:function(){for(var t=document.getElementsByTagName(&quot;script&quot;),e=t.length;e--;)if(t[e].getAttribute(&quot;data-cfhash&quot;))return t[e]}();if(t&amp;&amp;t.previousSibling){var e,r,n,i,c=t.previousSibling,a=c.getAttribute(&quot;data-cfemail&quot;);if(a){for(e=&quot;&quot;,r=parseInt(a.substr(0,2),16),n=2;a.length-n;n+=2)i=parseInt(a.substr(n,2),16)^r,e+=String.fromCharCode(i);e=document.createTextNode(e),c.parentNode.replaceChild(e,c)}t.parentNode.removeChild(t);}}catch(u){}}()/* ]]&gt; */&lt;/script&gt;\nFormat settings, CABAC                   : Yes\nFormat settings, ReFrames                : 3 frames\nCodec ID                                 : avc1\nCodec ID/Info                            : Advanced Video Coding\nDuration                                 : 4mn 16s\nBit rate                                 : 1 108 Kbps\nWidth                                    : 1 280 pixels\nHeight                                   : 720 pixels\nDisplay aspect ratio                     : 16:9\nFrame rate mode                          : Constant\nFrame rate                               : 23.976 fps\nColor space                              : YUV\nChroma subsampling                       : 4:2:0\nBit depth                                : 8 bits\nScan type                                : Progressive\nBits/(Pixel*Frame)                       : 0.050\nStream size                              : 33.9 MiB (90%)\nEncoded date                             : UTC 2013-11-12 19:39:20\nTagged date                              : UTC 2013-11-12 19:39:20\n\nAudio\nID                                       : 2\nFormat                                   : AAC\nFormat/Info                              : Advanced Audio Codec\nFormat profile                           : LC\nCodec ID                                 : 40\nDuration                                 : 4mn 16s\nBit rate mode                            : Variable\nBit rate                                 : 126 Kbps\nChannel(s)                               : 2 channels\nChannel positions                        : Front: L R\nSampling rate                            : 44.1 KHz\nCompression mode                         : Lossy\nDelay relative to video                  : 42ms\nStream size                              : 3.84 MiB (10%)\nEncoded date                             : UTC 2013-11-12 19:39:19\nTagged date                              : UTC 2013-11-12 19:39:19\n\nShared By Sbyky\n[IMG]http://cdn.piczend.com/images/X3Ag13N3/1379453786_saythanks.gif[/IMG]\n[IMG]http://cdn.piczend.com/images/gGqhX2S8/1379453780_keepseeding.gif[/IMG]","torrent":{"xt":"urn:btih:cfb31ef241656ab101cef6a61dc94b1d2d01a7bf","amp;dn":"Lupe+Fiasco+-+The+Show+Goes+On+%5BMusic+Video%5D+720p+%5BSbyky%5D","amp;tr":["udp%3A%2F%2Ftracker.openbittorrent.com%3A80","udp%3A%2F%2Fopen.demonii.com%3A1337","udp%3A%2F%2Ftracker.coppersurfer.tk%3A6969","udp%3A%2F%2Fexodus.desync.com%3A6969"],"infoHash":"cfb31ef241656ab101cef6a61dc94b1d2d01a7bf","infoHashBuffer":{"type":"Buffer","data":[207,179,30,242,65,101,106,177,1,206,246,166,29,201,75,29,45,1,167,191]},"announce":[],"urlList":[]}}